<svg viewBox="0 0 135.272 135.321" xml:space="preserve" xmlns="http://www.w3.org/2000/svg"><path style="stroke-width:.264583" d="M526.838-216.605a7.029 7.029 0 0 1-3.078-1.915c-1.568-1.667-1.787-2.394-1.94-6.465l-.14-3.73-2.778-2.073c-3.427-2.557-8.984-8.096-11.688-11.65-8.42-11.067-13.304-23.987-14.522-38.418-.527-6.236-.144-8.333 1.885-10.316 1.542-1.508 2.42-1.776 6.135-1.872 1.855-.048 3.373-.18 3.373-.293 0-.113-1.5-3.408-3.335-7.321-3.805-8.115-4.333-9.858-3.857-12.73.304-1.83 1.466-4.47 2.544-5.776l.667-.808-3.19-4.484c-4.177-5.873-4.322-6.156-4.324-8.453-.003-3.04 1.667-5.458 4.394-6.364 1.297-.43 3.478-.433 4.485-.006.362.154.446-.096.559-1.665.217-3.034 1.759-5.07 4.562-6.025 2.914-.993 6.571.464 7.997 3.187l.402.768.653-.834c1.7-2.173 5.102-3.01 7.695-1.894 1.778.764 3.351 2.472 3.862 4.192.322 1.084.367 2.438.242 7.294-.129 4.986-.093 5.981.218 6.074 1.707.507 3.095 1.154 4.062 1.892l1.144.873 1.244-1.821c1.705-2.495 5.196-5.74 7.443-6.918 2.765-1.45 4.741-1.874 8.042-1.728 3.14.14 5.244.797 7.81 2.438 1.566 1.002 3.981 3.274 5.324 5.009l.799 1.032 1.556-1.268c1.471-1.198 4.87-3.045 5.604-3.045.234 0 .338-.455.338-1.483 0-3.34 1.75-7.408 4.27-9.93 1.707-1.707 4.142-3.153 6.445-3.825 2.185-.637 6.092-.602 8.203.072l1.587.508 1.607-1.627c1.965-1.99 4.327-3.218 6.979-3.628 5.013-.776 10.317 1.951 12.616 6.49.916 1.808 1.495 4.74 1.291 6.544l-.164 1.455 1.8.916c5.504 2.8 8.675 9.508 7.386 15.62-.522 2.472-1.893 5.283-3.415 7.003l-1.163 1.314.61 1.332c1.139 2.49 1.497 4.505 1.366 7.677-.143 3.457-.869 5.83-2.555 8.355-.6.898-1.09 1.668-1.09 1.712 0 .044 1.399.12 3.109.169 3.426.098 4.36.396 5.87 1.872 1.78 1.74 2.004 2.53 1.97 6.947-.092 11.792-4.023 25.168-10.535 35.85-3.903 6.404-10.222 13.455-15.76 17.587l-2.778 2.073-.14 3.73c-.11 2.903-.248 3.936-.625 4.657-.673 1.285-1.95 2.586-3.204 3.264l-1.058.572-33.073.046c-18.19.025-33.372-.046-33.736-.159zm66.432-5.026c.753-.752.774-.845.774-3.44v-2.666H526.31v2.667c0 2.594.021 2.687.774 3.44l.773.773h64.64zm4.104-11.708c14.89-10.509 24.93-29.896 25.942-50.093l.172-3.44-.723-.86-.723-.859H498.311l-.722.86-.723.858.172 3.44c1.013 20.204 11.048 39.582 25.942 50.094l1.564 1.104h71.266zm-70.13-60.213c-.393-.996-.934-4.425-.934-5.91 0-.86-.104-1.564-.231-1.564s-.738.178-1.356.397c-1.777.627-3.037.524-3.685-.3-.302-.384-.549-1.023-.549-1.42 0-1.329.828-1.975 3.566-2.783 2.03-.6 2.555-.857 2.645-1.298.062-.302.244-1.383.406-2.401.443-2.793 1.52-6.856 2.532-9.562.498-1.33.906-2.541.906-2.691 0-.15-.503-.704-1.118-1.23-1.338-1.146-3.534-1.855-5.074-1.64-1.473.205-18.265 5.378-19.493 6.005-2.317 1.182-3.92 4.287-3.57 6.919.231 1.745.922 3.167 1.457 2.998 5.715-1.806 10.97-3.259 11.328-3.132 1.003.353 1.653 1.218 1.653 2.2 0 1.522-.666 1.905-6.218 3.577-2.765.832-5.063 1.545-5.107 1.584-.08.07 3.12 7.03 4.348 9.458l.636 1.256h9.02c8.483 0 9.008-.027 8.837-.463zm11.234.397c-.002-.036-.18-.65-.397-1.365-.216-.714-.394-2.1-.394-3.08 0-5.597 3.835-10.104 9.491-11.156 4.488-.834 9.627 1.807 11.697 6.013 1.404 2.851 1.605 5.767.624 9.059-.177.594-.17.595 2.98.595h3.157l.438-1.389c.798-2.536 1.01-5.056.722-8.598-.65-8.01-2.977-15.488-6.505-20.9-1.982-3.04-4.153-5.105-6.68-6.354-1.922-.95-2.117-.99-4.665-.982-2.11.007-2.963.13-4.126.594-6.725 2.68-12.375 13.618-13.767 26.65-.382 3.584-.19 6.842.543 9.193l.556 1.786h3.165c1.74 0 3.163-.03 3.161-.066zm16.427-1.654c.746-1.515.83-1.905.708-3.26-.266-2.936-2.111-5.221-4.858-6.02-2.467-.717-4.844-.093-6.695 1.758-1.4 1.4-1.73 2.273-1.736 4.612-.006 1.847.088 2.277.732 3.374l.739 1.256h10.263zm26.912-1.657c.758-1.857 1.379-3.498 1.379-3.646 0-.148-1.43-2.221-3.175-4.607-2.57-3.512-3.175-4.509-3.175-5.23 0-1.815 2.055-2.814 3.47-1.687.347.277 1.583 1.822 2.747 3.435 1.165 1.613 2.178 2.934 2.252 2.937.114.004 1.164-2.484 3.753-8.89l.449-1.11-3.004-4.097c-1.652-2.253-3.133-4.34-3.293-4.638-.478-.893-.332-1.632.484-2.448 1.541-1.54 2.46-1.033 5.406 2.986 1.725 2.353 2.403 3.098 2.572 2.827.126-.203 1.215-2.796 2.42-5.763 2.327-5.73 2.662-6.216 4.255-6.17.971.027 2.034 1.063 2.04 1.988.003.32-1.025 3.115-2.284 6.211-1.26 3.097-2.228 5.692-2.153 5.767.074.075 1.562-.108 3.306-.405 4.048-.69 5.208-.694 5.883-.019 1.211 1.212.758 3.173-.848 3.67-.476.148-2.978.597-5.56.999-2.583.401-4.796.797-4.92.878-.237.158-4.278 9.888-4.157 10.011.04.04 1.575-.168 3.412-.463 1.837-.295 3.78-.536 4.32-.536 1.335 0 2.204.835 2.204 2.117 0 1.715-.56 1.981-6.086 2.897-2.692.446-5.148.868-5.457.938-.428.097-.821.765-1.634 2.776l-1.07 2.65h24.486l1.04-.754c1.225-.887 3.16-3.026 3.725-4.118 2.099-4.05 1.895-9.164-.517-12.948-1.273-1.997-1.144-2.553 1.067-4.625 2.682-2.514 3.625-4.556 3.625-7.85 0-2.125-.09-2.573-.838-4.155-1.362-2.88-3.814-4.919-6.916-5.754-2.154-.58-2.524-1.473-1.736-4.184 1.43-4.92-2.265-9.735-7.44-9.694-3.024.025-5.475 1.585-6.905 4.396-1.036 2.035-2.067 2.268-4.53 1.022-5.31-2.684-11.4-.613-13.942 4.742-.767 1.615-.817 1.91-.82 4.804-.003 3.653-.192 4.003-2.411 4.464-2.029.42-4.802 1.887-6.125 3.237l-1.13 1.154.774 1.708c1.128 2.487 2.526 6.639 3.157 9.372 1.404 6.082 1.831 13.307.998 16.884-.23.99-.42 1.914-.42 2.05 0 .146 2.053.248 4.972.248h4.971zM505.54-323.05c.437-.15.892-.36 1.012-.468.119-.107-.088-1.192-.462-2.411-.544-1.778-1.102-2.82-2.82-5.26-2.503-3.557-2.925-3.968-4.059-3.968-1.505 0-2.666 1.696-2.065 3.015.149.328 1.736 2.644 3.526 5.148 2.422 3.388 3.36 4.51 3.665 4.385.225-.092.767-.29 1.203-.44zm7.82-2.353c.938-.31 1.787-.637 1.888-.727.1-.09-.874-3.616-2.165-7.835-2.498-8.167-2.845-8.865-4.403-8.865-.773 0-2.208 1.309-2.225 2.03-.021.864 4.633 15.957 4.921 15.96.154 0 1.047-.252 1.984-.563zm8.08-2.497 1.43-.416.065-4.28c.124-8.275.16-7.82-.674-8.538-1.381-1.187-3.115-.632-3.612 1.156-.15.541-.274 2.574-.275 4.518 0 3.04.093 3.844.676 5.754.373 1.222.741 2.221.82 2.221.077 0 .784-.187 1.57-.415z" transform="translate(-492.478 351.763)"/></svg>