<svg width="511.652" height="334.047" viewBox="0 0 135.375 88.383" xml:space="preserve" xmlns="http://www.w3.org/2000/svg"><path style="fill:#000;stroke-width:.264583" d="M488.103-252.102c-7.12-1.564-13.162-6.543-16.088-13.255-.873-2.005-.883-2.593-.057-3.419.645-.644.692-.65 5.689-.65h5.04v-4.1c0-4.872.132-5.16 2.38-5.16h1.323v-4.498h-1.277c-.992 0-1.404-.136-1.852-.612-.546-.582-.575-.849-.575-5.395 0-6.264-.197-5.983 4.325-6.164l3.315-.132-1.038-1.542c-3.36-4.992-2.531-11.808 1.937-15.945 1.598-1.48 3.914-2.76 5.682-3.14l.86-.185v-11.188c0-10.918.014-11.205.549-11.885.717-.911 2.032-.95 2.845-.085.572.61.575.676.575 11.875v11.262l1.257.317c1.994.501 4.16 1.802 5.713 3.43 4.204 4.407 4.757 10.707 1.385 15.784l-.924 1.392 3.27.087c4.619.124 4.38-.205 4.38 6.036 0 4.821-.014 4.953-.612 5.515-.449.422-.943.575-1.852.575h-1.24v4.498h1.323c2.249 0 2.381.288 2.381 5.16v4.1H521.844v-3.933c0-3.553.052-3.999.538-4.616.435-.553.803-.7 1.918-.763l1.38-.08V-283.051l-1.42-.143c-2.308-.232-2.416-.491-2.416-5.827 0-2.703.116-4.71.294-5.101.454-.997 1.335-1.233 4.612-1.233h3.028l-.901-1.181c-1.65-2.162-2.125-3.817-2.132-7.431-.006-3.147.007-3.215.97-5.16 1.723-3.484 3.902-5.417 7.493-6.65l1.85-.634.064-11.366c.064-11.215.072-11.372.625-11.83.677-.559 1.802-.598 2.502-.087.49.359.519.878.645 11.829l.133 11.453 1.587.556c3.848 1.35 6.017 3.207 7.686 6.584.943 1.908 1.038 2.303 1.134 4.679.128 3.195-.478 5.474-2.055 7.725l-1.06 1.513h3.022c3.27 0 4.151.236 4.606 1.233.178.391.293 2.41.293 5.142 0 4.422-.01 4.508-.65 5.147-.518.519-.918.65-1.994.65h-1.346l.077 2.182.077 2.183 1.38.08c1.116.064 1.484.21 1.918.763.486.617.538 1.063.538 4.616v3.934H561.267v-4.102c0-4.871.133-5.159 2.382-5.159h1.322v-4.498h-1.276c-.993 0-1.405-.136-1.852-.612-.548-.583-.576-.846-.576-5.515 0-6.198-.235-5.875 4.381-5.999l3.27-.087-.925-1.392c-1.848-2.784-2.777-6.817-1.883-8.18.56-.854 1.58-1.082 2.564-.573.814.421.921.685 1.177 2.899.458 3.95 3.854 7.027 7.999 7.244 3.521.185 6.304-1.364 8-4.454.872-1.59.944-1.89.946-3.968.002-2.645-.528-4.06-2.204-5.878-1.308-1.42-2.995-2.289-5.158-2.66-1.437-.245-1.878-.21-3.49.283-1.215.371-2.283.928-3.13 1.63-1.588 1.32-2.75 1.44-3.59.371-.785-.998-.687-1.545.51-2.843 1.192-1.294 3.485-2.614 5.358-3.085l1.257-.317v-22.599l.612-.575c.866-.814 2.114-.76 2.808.122.535.68.548.967.548 11.856v11.16l1.594.476c7.953 2.383 11.476 12.03 6.885 18.851l-1.037 1.542 3.314.132c4.525.18 4.326-.105 4.326 6.201 0 4.696-.016 4.834-.613 5.395-.449.422-.943.575-1.852.575h-1.24v4.498h1.323c2.249 0 2.382.288 2.382 5.16v4.1h5.039c4.997 0 5.044.005 5.688.65.878.878.825 1.412-.403 4.033-3.12 6.657-8.78 11.154-15.934 12.659-1.46.307-4.437.386-14.648.386-12.463 0-12.83-.015-13.345-.53-.713-.713-.699-2.145.028-2.803.527-.477 1.261-.511 13.957-.646 14.948-.16 14.378-.093 18.295-2.134 2.518-1.313 4.71-3.246 6.389-5.637l1.318-1.876-31.37-.068c-17.254-.037-45.487-.037-62.741 0l-31.37.068 1.33 1.894c2.24 3.189 5.623 5.682 9.552 7.037l1.72.594 33.508.132c32.48.128 33.525.148 34.065.636.38.344.557.824.557 1.506 0 1.971 2.693 1.83-34.256 1.8-26.4-.021-33.403-.097-34.675-.377zm24.746-20.102v-2.778h-26.194v5.557h26.194zm39.366.067-.076-2.712h-26.194l-.075 2.712-.075 2.712H552.29zm39.215-.067v-2.778h-26.194v5.557h26.194zm-82.286-8.73v-2.25h-3.054c-2.89 0-3.09-.035-3.704-.65-.828-.827-.828-1.841 0-2.67.642-.642.699-.649 5.556-.649h4.907V-291.386h-26.194V-287.153h4.907c4.857 0 4.913.007 5.556.65.828.828.828 1.842 0 2.67-.615.614-.814.65-3.704.65h-3.055v4.498h18.785zm39.159-.004v-2.252l-9.327.07-9.326.069-.08 1.826c-.043 1.004-.017 1.986.058 2.182.112.29 1.872.357 9.406.357h9.269v-2.252zm39.423.003v-2.249H568.94v4.498h18.786zm-35.455-8.334v-2.117h-26.458V-287.153h26.458zm39.159 0v-2.117h-26.194V-287.153h26.194zm-88.51-6.635c1.788-.669 3.737-2.494 4.64-4.345.527-1.081.647-1.735.652-3.572.006-1.936-.097-2.46-.735-3.758-2.503-5.097-9.217-6.448-13.393-2.693-.762.685-1.63 1.82-2.058 2.693-.636 1.295-.74 1.827-.738 3.758.003 2.078.074 2.38.947 3.968 1.03 1.878 2.782 3.429 4.606 4.08 1.612.574 4.351.515 6.079-.13zm39.959-.309c6.39-3.303 6.19-12.469-.339-15.488-3.135-1.45-7.06-.728-9.545 1.756-1.36 1.36-2.077 2.763-2.372 4.645-.681 4.343 1.79 8.318 6.038 9.713.364.12 1.614.182 2.778.138 1.653-.062 2.407-.23 3.44-.764z" transform="translate(-471.35 340.082)"/></svg>