<svg viewBox="0 0 113.234 135.377" xml:space="preserve" xmlns="http://www.w3.org/2000/svg"><path style="stroke-width:.264583" d="M393.139-252.71c-3.496-.667-7.708-3.931-9.216-7.142-.397-.846-3.216-11.117-6.472-23.585l-5.77-22.086-1.995-2.121c-3.246-3.451-4.716-7.098-4.724-11.719-.008-4.439 1.687-8.756 4.616-11.757.879-.9 1.871-1.818 2.205-2.04.48-.317.739-.98 1.228-3.146.86-3.805 1.787-6.47 3.481-10.008 1.725-3.604 3.028-5.729 5.33-8.691 5.845-7.523 14.67-13.578 23.873-16.38l2.39-.727v-2.14c0-6.81 4.864-12.426 11.616-13.41 5.549-.808 11.149 2.005 13.75 6.908 1.185 2.233 1.614 3.957 1.622 6.514l.006 2.117 3.105.994c16.094 5.154 28.237 18.268 31.941 34.495l.612 2.682 2.21 2.213c3.57 3.575 5.257 7.551 5.248 12.376-.008 4.621-1.478 8.268-4.724 11.719l-1.996 2.121-5.769 22.086c-3.256 12.468-6.075 22.739-6.472 23.585-1.56 3.323-5.735 6.485-9.46 7.166-2.008.366-54.704.344-56.636-.024zm8.333-5.18c.004-.478-8.52-47.074-8.683-47.47-.158-.381-.405-.304-1.863.583-3.204 1.95-7.428 2.862-10.947 2.363-1.029-.146-1.913-.223-1.965-.171-.19.189 10.247 39.662 10.737 40.61.887 1.719 3.01 3.418 5.045 4.037.866.263 7.674.306 7.676.048zm39.106-23.549c2.373-13.06 4.308-23.826 4.3-23.924-.01-.099-.686.224-1.504.717-5.33 3.209-12.654 3.09-17.76-.286l-1.39-.919v27.84l-.9.9c-.647.648-1.135.899-1.745.899-.61 0-1.098-.251-1.747-.9l-.9-.9V-305.838l-1.469.94c-5.251 3.36-12.352 3.461-17.68.253-.818-.493-1.495-.816-1.503-.717-.01.098 1.926 10.865 4.3 23.924l4.314 23.746h29.369zm-20.746 16.234c-.99-.99-1.137-1.843-.522-3.031.392-.758 1.398-1.361 2.269-1.361 1.34 0 2.646 1.292 2.646 2.62 0 .894-.596 1.898-1.362 2.294-1.188.615-2.04.468-3.03-.522zm30.85 6.753c1.509-.783 3.075-2.265 3.725-3.522.49-.95 10.926-40.422 10.737-40.611-.052-.052-.937.025-1.966.17-3.518.5-7.743-.412-10.946-2.362-1.46-.887-1.706-.964-1.864-.582-.17.407-8.687 46.998-8.683 47.494.001.122 1.758.18 3.905.127 3.464-.085 4.036-.165 5.093-.714zm-66.645-49.25c3.317-.63 6.657-2.963 8.233-5.751 1.08-1.912 1.92-2.533 3.191-2.363 1.264.168 1.563.423 2.543 2.159 2.412 4.274 7.474 6.756 12.162 5.966 3.675-.62 6.727-2.714 8.584-5.89 1.846-3.157 3.811-3.157 5.657 0 2.518 4.305 7.49 6.707 12.196 5.891 3.463-.6 6.772-2.865 8.43-5.77 1.027-1.8 1.38-2.144 2.4-2.335 1.35-.254 2.06.215 3.339 2.204 2.12 3.299 5.031 5.299 8.634 5.934 4.9.863 10.315-2.126 12.535-6.92.666-1.437.814-2.133.903-4.233.206-4.898-1.34-7.734-6.134-11.245-.635-.465-.799-.914-1.353-3.714-3.07-15.516-13.74-27.466-28.962-32.433l-3.042-.993-.65.843c-3.402 4.412-8.758 6.52-13.823 5.439-3.08-.657-6.34-2.67-7.944-4.904-.499-.694-1.033-1.147-1.351-1.147-.958 0-6.084 1.88-8.776 3.219-9.29 4.62-16.735 12.511-20.495 21.725-1.13 2.77-2.25 6.639-2.542 8.79-.293 2.157-.717 2.866-2.397 4.006-2.102 1.428-3.906 3.85-4.622 6.206-.833 2.742-.653 6.079.455 8.441 1.156 2.465 3.164 4.55 5.482 5.691 2.76 1.36 4.736 1.678 7.347 1.183zm12.008-35.516c-.469-.403-.742-.96-.843-1.718-.149-1.107-.124-1.15 1.85-3.169 1.863-1.905 2.077-2.046 3.104-2.046.92 0 1.237.149 1.9.891.69.773.777 1.037.652 1.974-.122.906-.444 1.372-1.983 2.872-1.658 1.617-1.943 1.792-2.913 1.792-.733 0-1.295-.19-1.767-.596zm22.527-.102c-.545-.545-.697-.956-.697-1.875 0-1.082.131-1.315 1.62-2.865 1.917-1.996 2.933-2.44 4.289-1.874 1.112.465 1.499 1.107 1.499 2.487 0 .934-.184 1.209-1.956 2.928-1.76 1.705-2.062 1.897-3.007 1.897-.782 0-1.229-.179-1.748-.698zm22.565-.076c-.576-.576-.773-1.023-.773-1.753 0-.862.237-1.222 1.966-2.99 1.828-1.87 2.044-2.012 3.07-2.012.91 0 1.238.15 1.87.858 1.342 1.502.968 2.731-1.567 5.15-1.417 1.35-1.718 1.52-2.694 1.52-.86 0-1.265-.166-1.872-.773zm-15.937-23.39c3.415-1.74 5.205-5.253 4.534-8.901-.495-2.693-2.006-4.702-4.534-6.028-1.18-.62-1.686-.72-3.621-.72-1.92 0-2.443.103-3.572.698-3.487 1.838-5.148 5.099-4.56 8.952.458 3.002 2.799 5.59 6.015 6.647 1.31.432 4.275.096 5.738-.649z" transform="translate(-364.962 387.8)"/></svg>