<svg width="508.17" height="433.635" viewBox="0 0 134.453 114.733" xml:space="preserve" xmlns="http://www.w3.org/2000/svg"><path style="fill:#000;stroke-width:.264583" d="M374.073-284.706c-2.54.656-5.843.14-8.006-1.253-1.082-.696-31.137-30.388-32.379-31.987-2.173-2.8-2.287-7.927-.244-10.968.399-.593 3.784-4.168 7.523-7.944l15.47-15.625c8.06-8.14 8.792-8.82 10.345-9.6 3.117-1.566 6.701-1.368 9.623.532 1.718 1.117 25.188 24.233 25.977 25.585.747 1.28-.156 2.708-1.749 2.767-.739.028-.817-.045-13.89-13.034-6.249-6.21-11.759-11.582-12.244-11.939-1.66-1.222-4.368-1.341-6.199-.273-1.035.605-30.78 30.498-31.52 31.677-1.05 1.675-1.15 4.506-.214 6.11.354.605 30.36 30.455 31.522 31.355.864.67 3.532 1.149 4.697.842 1.895-.499-.044 1.366 27.934-26.866 2.518-2.541 4.872-5.112 5.23-5.713.358-.601.704-1.721.769-2.489.11-1.3.032-1.549-1.111-3.587-1.493-2.66-1.488-3.3.026-4.04.832-.407 1.088-.396 1.846.085 1.33.844 2.928 3.988 3.143 6.185.201 2.049-.289 4.357-1.266 5.965-1.054 1.734-30.696 31.665-32.63 32.948-.79.524-1.984 1.094-2.653 1.267zm-.52-14.575c-2.512.535-5.368-.056-7.135-1.478-1.286-1.034-2.869-3.99-2.94-5.489-.077-1.601.482-3.7 1.348-5.063.655-1.029 1.136-1.465 2.517-2.283 2.714-1.607 5.368-1.625 8.189-.055 1.082.602 1.343.902 2.476 2.844 1.41 2.416 1.542 3.127 1.031 5.568-.42 2.008-1.602 3.718-3.364 4.869-.793.518-1.748 1.007-2.123 1.087zm1.222-5.652c1.705-3.16-1.374-6.902-4.7-5.715-2.698.963-3.457 4.468-1.415 6.525 1.76 1.771 4.95 1.348 6.115-.81zm-1.133-11.252c-1.342.372-3.111.353-4.53-.047-5.129-1.446-7.3-7.504-4.308-12.02 1.172-1.77 3.859-3.293 5.981-3.39 5.313-.244 9.226 4.378 8.194 9.68-.463 2.382-3.002 5.13-5.337 5.777zm.959-5.452c1.686-2.726-.363-6.226-3.53-6.027-1.948.122-3.266 1.364-3.62 3.412-.705 4.077 4.963 6.15 7.15 2.615zm-1.602-11.302c-3.753.703-6.735-.61-8.586-3.783-1.559-2.67-1.467-5.541.268-8.346.97-1.57 3.99-3.316 5.891-3.407 1.83-.088 3.462.33 4.976 1.27 1.7 1.058 3.337 3.738 3.539 5.793.383 3.897-2.41 7.784-6.088 8.473zm1.515-5.627c1.166-1.877.661-4.129-1.197-5.338-2.588-1.684-6.017.245-5.993 3.37.014 1.822.998 3.126 2.772 3.674 1.826.564 3.38-.036 4.418-1.706zm-34.401-.947c-1.275.342-16.264 4.425-24.319 6.624-19.248 5.256-18.75 5.157-21.586 4.287-2.21-.678-3.977-2.017-5.306-4.018-1.061-1.6-1.312-2.428-6.814-22.529-3.142-11.477-5.77-21.543-5.842-22.368-.07-.825-.022-2.048.108-2.717.492-2.529 2.487-5.34 4.71-6.637 1.369-.8 42.875-12.158 44.857-12.276 1.953-.116 4.946.853 6.534 2.116 2.575 2.047 2.758 2.539 7.734 20.836 2.452 9.015 4.51 16.746 4.575 17.178.209 1.405-.736 2.303-2.21 2.098-.552-.077-1.008-.346-1.23-.726-.193-.331-2.429-8.202-4.968-17.49-4.901-17.93-4.86-17.817-6.749-19.041-.996-.647-2.527-1.112-3.507-1.066-.7.032-5.15 1.224-32.898 8.81-5.191 1.419-9.834 2.81-10.317 3.093-1.27.741-2.603 2.946-2.717 4.496-.075 1.016 1.072 5.56 5.56 22.03 5.014 18.4 5.756 20.901 6.554 22.102 1.06 1.597 2.564 2.47 4.42 2.569 1.442.076 42.18-10.97 43.674-11.842 1.987-1.159 3.05-3.505 2.773-6.12-.234-2.209.637-3.277 2.314-2.836 1.147.301 1.467.89 1.648 3.034.315 3.71-1.371 7.115-4.51 9.106-.931.59-2.05 1.17-2.488 1.287zm-12.458-8.046c-3.05.605-6.404-.926-8-3.652-1.134-1.937-1.467-3.65-1.087-5.59.915-4.672 5.713-7.473 10.232-5.972 1.876.623 3.204 1.755 4.332 3.695 2.71 4.66-.038 10.44-5.477 11.52zm2.031-5.886c.718-1.504.73-2.59.045-3.724-2.091-3.462-7.046-2.367-7.328 1.618-.102 1.443.97 3.3 2.178 3.777 2.077.82 4.258.107 5.105-1.67zm-24.696 12.106c-3.534.661-6.648-.718-8.402-3.723-1.522-2.608-1.461-5.723.164-8.315 1.109-1.769 3.778-3.39 5.817-3.535 5.49-.388 9.788 4.66 8.37 9.83-.8 2.917-3.193 5.226-5.95 5.743zm1.495-5.347c.915-1.212 1.007-2.99.225-4.33-1.5-2.57-5.393-2.567-6.781.004-1.473 2.729.624 6.088 3.68 5.896 1.242-.078 2.106-.55 2.876-1.57zm15.047-23.825c-1.628.36-4.175-.157-5.796-1.177-1.085-.682-1.469-1.11-2.376-2.653-.944-1.603-1.095-2.063-1.181-3.59-.294-5.241 4.652-9.25 9.81-7.953 2.148.54 3.681 1.716 4.846 3.716 1.568 2.692 1.474 5.576-.27 8.305-.866 1.353-3.286 2.966-5.033 3.352zm2.043-6.088c.623-1.304.381-3.217-.54-4.282-1.295-1.494-4.066-1.764-5.456-.53-1.55 1.376-1.903 3.445-.883 5.19 1.522 2.602 5.561 2.38 6.879-.378zm-24.933 12.312c-6.942 1.3-12.014-6.227-8.136-12.07 1.336-2.012 3.645-3.355 6.068-3.53 1.884-.136 4.218.603 5.576 1.765 1.315 1.125 2.624 3.661 2.761 5.35.329 4.058-2.407 7.762-6.27 8.485zm1.78-5.756c.635-1.082.673-2.988.08-4.004-.559-.956-2.44-1.973-3.58-1.934-2.258.077-4.214 2.468-3.76 4.598.782 3.679 5.39 4.53 7.26 1.34z" transform="translate(-276.213 399.157)"/></svg>