<svg viewBox="0 0 144.471 132.409" xml:space="preserve" xmlns="http://www.w3.org/2000/svg"><path style="stroke-width:.282222" d="M352.145-243.475c-1.485-.674-27.184-18.064-28.52-19.298-1.814-1.678-2.466-4.183-1.617-6.216.684-1.637 4.911-7.715 5.877-8.451 1.512-1.152 3.253-1.455 5.165-.9.884.258 1.635.429 1.668.381 1.557-2.217 10.743-12.908 11.75-13.676l1.427-1.087-12.246-.141-12.246-.141-1.376-.851c-2.065-1.277-2.953-3.143-2.953-6.201 0-3.727.977-5.663 3.528-6.995.9-.469 1.799-.614 4.424-.713l3.295-.125.19-2.153c1.606-18.169 12.34-35.512 28.215-45.585 5.813-3.688 13.627-6.834 20.09-8.088 1.679-.326 3.2-.638 3.381-.694.226-.07.118-.616-.346-1.743-.784-1.907-.908-4.489-.275-5.714 1.217-2.352 4.447-3.519 9.747-3.519s8.53 1.167 9.747 3.52c.633 1.224.509 3.806-.275 5.713-.46 1.12-.57 1.67-.346 1.733.18.05 1.725.374 3.433.718 8.504 1.716 17.043 5.584 24.27 10.994 5.048 3.778 13.282 12.633 13.873 14.92.37 1.43-1.07 2.855-2.517 2.491-.43-.107-1.451-1.19-2.763-2.928-1.145-1.517-3.483-4.162-5.196-5.88-17.174-17.214-43.18-21.63-64.94-11.025-6.252 3.047-10.636 6.153-15.37 10.89-4.98 4.985-8.304 9.665-11.28 15.889-2.749 5.745-4.7 12.592-5.228 18.342l-.201 2.187h3.378c3.882 0 4.967.276 5.423 1.378.35.846.057 2.049-.603 2.475-.204.132-4.414.303-9.357.38l-8.985.142-.54.666c-.791.978-.768 4.202.037 5.066l.575.618h133.73l.575-.618c.805-.864.828-4.088.036-5.066l-.54-.666-53.843-.073-53.842-.073-.651-.611c-1.15-1.081-.744-2.769.796-3.306.64-.223 14.646-.312 49.15-.312h48.253l-.188-2.046c-.439-4.778-2.112-11.366-4.02-15.83-1.089-2.55-1.196-3.822-.38-4.56.712-.645 2.2-.617 2.824.053.662.711 2.597 5.573 3.63 9.119.992 3.41 1.872 7.934 2.146 11.043l.19 2.153 3.296.124c3.594.135 4.537.44 6.182 2 1.323 1.257 1.845 3.1 1.727 6.096-.127 3.21-1.01 4.816-3.31 6.017l-1.51.79h-18.205l.033 1.912c.057 3.255-.149 3.523-8.153 10.623-9.361 8.304-11.879 10.08-17.429 12.294-2.678 1.069-10.856 3.415-14.883 4.27-4.035.856-10.812.905-15.664.112-4.688-.766-13.281-.79-15.945-.045-2.231.625-3.994 1.554-5.647 2.977l-1.244 1.072 1.048 1.224c1.667 1.948 2.019 4 1.052 6.131-.6 1.322-4.12 6.594-5.11 7.65-1.542 1.65-4.262 2.145-6.417 1.167zm3.534-4.303c.318-.35 1.435-1.93 2.482-3.514 1.5-2.27 1.866-3.027 1.728-3.577-.134-.535-3.322-2.835-13.651-9.85-7.412-5.033-13.767-9.304-14.122-9.491-.355-.187-.892-.262-1.193-.166-.7.222-5.076 6.556-5.076 7.347 0 .328.286.857.635 1.175.525.478 7.93 5.544 25.154 17.206 2.45 1.66 3.18 1.816 4.043.87zm5.587-17.06c2.38-1.807 5.362-2.91 9.445-3.495 2.974-.425 10.027-.177 13.98.492 1.822.308 4.473.483 7.479.493 5.238.018 6.83-.253 14.773-2.514 9.702-2.761 11.731-3.954 21.76-12.786 7.32-6.446 7.776-6.904 7.776-7.807 0-1.78-1.13-2.716-2.602-2.156-.41.156-3.881 2.346-7.715 4.867l-6.97 4.583-6.527 1.945-6.525 1.945-5.41.154-5.41.155-.728-.729c-.765-.765-.915-1.572-.453-2.436.152-.283 2.01-1.444 4.13-2.58 3.343-1.789 3.91-2.194 4.268-3.05.84-2.012-.5-3.977-2.714-3.977-.462 0-4.795.825-9.629 1.834-4.833 1.01-9.197 1.835-9.696 1.835-.5 0-4.65-1.01-9.223-2.242-4.573-1.234-8.95-2.325-9.726-2.425-3.891-.504-10.02 1.925-13.484 5.344-.656.647-3.188 3.61-5.628 6.586l-4.437 5.41 9.94 6.76 9.94 6.758 1.128-1.053a35.5 35.5 0 0 1 2.258-1.91zm50.047-20.42 6.02-1.736 4.399-2.864 4.398-2.864-9.968-.074c-5.482-.04-10.013-.03-10.067.025-.054.054.123.532.393 1.062.327.639.487 1.58.475 2.797-.018 1.902-.409 2.979-1.714 4.723-.376.502-.52.857-.32.79.2-.068 3.073-.905 6.384-1.859zm-29.021-7.323c.481-.154-.013-.228-1.552-.234-1.503-.006-2.07.073-1.694.234.7.3 2.307.3 3.246 0zm13.53-73.502c1.09-1.125 1.862-3.464 1.328-4.025-.554-.581-3.589-1.213-5.827-1.213-2.244 0-5.287.635-5.812 1.213-.52.571.093 2.55 1.186 3.826l1.001 1.17h7.183z" transform="translate(-319.074 375.385)"/></svg>