<svg width="15" height="16" viewBox="0 0 15 16" fill="none" xmlns="http://www.w3.org/2000/svg">
<g clip-path="url(#clip0_191_1315)">
<path d="M12.0703 15.0368C11.9232 15.0368 11.7761 15.0368 11.6241 15.0281C11.4939 14.947 11.3693 14.8732 11.243 14.8023C10.4846 14.3771 9.72621 13.9518 8.96698 13.528C8.47875 13.2555 7.98906 12.9857 7.50001 12.7012C7.5 8.46463 7.5 4.24153 7.5 0.0184326C7.55981 0.0184326 7.61963 0.0184326 7.68342 0.0269907C7.87847 0.124813 7.96047 0.299641 8.03626 0.479854C8.0726 0.566264 8.10968 0.652451 8.14956 0.737265C8.3718 1.21001 8.59437 1.6826 8.81804 2.15467C9.09833 2.74624 9.38105 3.33666 9.66005 3.92884C9.75812 4.137 9.85216 4.34729 9.94043 4.55977C9.98399 4.66461 10.0544 4.70279 10.1634 4.714C10.3953 4.73783 10.6264 4.77108 10.8568 4.80694C11.2646 4.8704 11.6712 4.9422 12.0793 5.0039C12.437 5.05798 12.7965 5.09997 13.1544 5.15285C13.5252 5.20766 13.8961 5.26357 14.265 5.32994C14.4666 5.36621 14.6848 5.35494 14.855 5.50297C14.902 5.54384 14.9516 5.58172 15 5.62098C15 5.77805 15 5.93512 14.9918 6.09733C14.9299 6.16288 14.8783 6.22544 14.822 6.28337C14.4148 6.70226 14.0077 7.12138 13.5984 7.53819C12.9358 8.21287 12.2714 8.88585 11.6077 9.55953C11.5975 9.56992 11.5825 9.57825 11.5775 9.59067C11.5638 9.62467 11.5408 9.66215 11.5452 9.69506C11.5723 9.89746 11.6044 10.0992 11.6377 10.3007C11.7027 10.6944 11.7711 11.0876 11.8355 11.4814C11.8799 11.7536 11.9183 12.0268 11.9624 12.2991C12.0262 12.693 12.0924 13.0866 12.1584 13.4802C12.2054 13.7611 12.249 14.0428 12.3031 14.3224C12.3566 14.5994 12.3452 14.8474 12.0643 15.0048C12.0613 15.0064 12.0681 15.0257 12.0703 15.0368Z" fill="white" fill-opacity="0.933333"/>
<path d="M7.48718 0.0184326C7.5 4.24153 7.5 8.46463 7.49044 12.7057C6.86779 13.0651 6.25495 13.407 5.64154 13.7479C4.95688 14.1285 4.27117 14.5071 3.58758 14.8896C3.51866 14.9281 3.46121 14.9872 3.39844 15.0368C3.25131 15.0368 3.10417 15.0368 2.95202 15.0285C2.79142 14.9014 2.64688 14.773 2.66757 14.5522C2.68135 14.4051 2.70749 14.2589 2.73155 14.1129C2.79661 13.718 2.86365 13.3235 2.92964 12.9288C2.9862 12.5904 3.04293 12.2521 3.09857 11.9135C3.15039 11.5983 3.20118 11.2829 3.25184 10.9675C3.30553 10.6333 3.36801 10.3001 3.40711 9.96421C3.42234 9.83332 3.52756 9.69459 3.39433 9.55983C3.07664 9.2385 2.76612 8.91009 2.44968 8.5875C1.78808 7.91304 1.1239 7.24112 0.462321 6.56664C0.333605 6.43541 0.21305 6.29619 0.0858575 6.16341C0.0648648 6.14149 0.0289946 6.13386 1.10137e-10 6.11963C-2.91867e-08 5.96256 -2.70666e-08 5.80548 0.00824165 5.64342C0.136499 5.46782 0.305436 5.38621 0.508649 5.36532C0.622994 5.35357 0.737774 5.3436 0.851153 5.32534C1.26024 5.25944 1.66813 5.18585 2.07775 5.12364C2.56377 5.04983 3.05142 4.98689 3.53779 4.91533C3.98112 4.85011 4.42379 4.78038 4.86648 4.71089C4.94595 4.69842 5.00717 4.67148 5.04668 4.58168C5.21111 4.20795 5.38631 3.83894 5.56004 3.46938C5.91593 2.71229 6.27413 1.95628 6.62979 1.19908C6.72061 1.00572 6.79406 0.803308 6.89618 0.616377C7.00729 0.412978 7.04799 0.154143 7.30081 0.0503661C7.30286 0.0495246 7.29706 0.0295003 7.29492 0.0184326C7.35474 0.0184326 7.41455 0.0184326 7.48718 0.0184326Z" fill="#CF4F62"/>
</g>
<defs>
<clipPath id="clip0_191_1315">
<rect width="15" height="15.0183" fill="white" transform="translate(0 0.0184326)"/>
</clipPath>
</defs>
</svg>
