<svg width="16" height="16" viewBox="0 0 16 16" fill="none" xmlns="http://www.w3.org/2000/svg">
<g clip-path="url(#clip0_191_1318)">
<path d="M2.95232 14.9839C2.83025 14.9071 2.73945 14.7867 2.7184 14.6739C2.70782 14.6172 2.85689 13.6249 3.10156 12.1232C3.32182 10.7713 3.49815 9.64886 3.49339 9.6289C3.48864 9.60893 2.71369 8.80194 1.77128 7.83558C-0.0472287 5.97086 -0.0372554 5.98262 0.0144059 5.76314C0.045903 5.62933 0.135966 5.50296 0.238886 5.44817C0.304442 5.41327 1.08685 5.282 2.68651 5.03752L5.03778 4.67816L6.10093 2.41352C6.96617 0.570447 7.1804 0.137121 7.25175 0.0857526C7.37637 -0.00395741 7.6875 -0.00401833 7.81227 0.0856357C7.88365 0.136937 8.09747 0.569287 8.96312 2.41275L10.0263 4.67687L12.3775 5.03631C13.9999 5.28431 14.7586 5.41182 14.8251 5.4476C15.028 5.55678 15.1153 5.88247 14.9921 6.07073C14.9631 6.11492 14.1834 6.92551 13.2594 7.87205C12.3353 8.8186 11.5754 9.60932 11.5706 9.62922C11.5658 9.64913 11.7421 10.7714 11.9623 12.1233C12.2161 13.6818 12.3561 14.6164 12.3448 14.6775C12.323 14.7954 12.1847 14.9588 12.0646 15.0086C11.867 15.0905 11.823 15.0697 9.64494 13.863C8.50011 13.2287 7.54951 12.7097 7.53249 12.7097C7.51548 12.7097 6.56466 13.229 5.41956 13.8636C3.60045 14.8717 3.31899 15.0189 3.1904 15.0293C3.08036 15.0382 3.02029 15.0267 2.95232 14.9839Z" fill="#CF4F62"/>
</g>
<defs>
<clipPath id="clip0_191_1318">
<rect width="15.0488" height="15.0183" fill="white" transform="translate(0 0.0184326)"/>
</clipPath>
</defs>
</svg>
