<svg width="15" height="16" viewBox="0 0 15 16" fill="none" xmlns="http://www.w3.org/2000/svg">
<g clip-path="url(#clip0_191_1314)">
<path d="M7.49571 0.0184326V0.0186099C7.43729 0.0186146 7.37891 0.0186165 7.31661 0.0269743C7.12156 0.124797 7.03952 0.299642 6.96373 0.479855C6.92739 0.566265 6.89031 0.652447 6.85043 0.737261C6.62819 1.21001 6.40565 1.68261 6.18198 2.15468C5.9017 2.74625 5.61898 3.33668 5.33998 3.92885C5.24191 4.13702 5.14788 4.34731 5.0596 4.55979C5.01605 4.66463 4.94564 4.70281 4.83656 4.71402C4.60469 4.73785 4.37362 4.77109 4.14322 4.80694C3.73536 4.87041 3.32881 4.9422 2.9207 5.00391C2.56303 5.05799 2.20352 5.09998 1.84565 5.15286C1.4748 5.20767 1.10395 5.26358 0.735054 5.32995C0.533449 5.36622 0.315282 5.35493 0.145054 5.50296C0.0980509 5.54384 0.0484092 5.58173 0 5.62098C0 5.77806 1.0748e-05 5.93514 0.00818253 6.09735C0.0701193 6.1629 0.121696 6.22545 0.178013 6.28337C0.585257 6.70226 0.992256 7.12139 1.40162 7.5382C2.06424 8.21289 2.72861 8.88585 3.39226 9.55953C3.40249 9.56992 3.41746 9.57827 3.42247 9.59069C3.43619 9.62469 3.4592 9.66216 3.4548 9.69508C3.42774 9.89748 3.39564 10.0992 3.36233 10.3007C3.29725 10.6944 3.22893 11.0876 3.16458 11.4814C3.1201 11.7536 3.08172 12.0268 3.03761 12.299C2.97377 12.693 2.90766 13.0865 2.84168 13.4801C2.79459 13.7611 2.75103 14.0428 2.69697 14.3224C2.64342 14.5994 2.65483 14.8474 2.93575 15.0048C2.93876 15.0064 2.93192 15.0257 2.92969 15.0368C3.07682 15.0368 3.22399 15.0368 3.37595 15.0281C3.50616 14.947 3.63074 14.8732 3.75704 14.8023C4.51543 14.3771 5.27381 13.9518 6.03304 13.528C6.52055 13.2559 7.00949 12.9864 7.49783 12.7024C7.98617 12.9864 8.4752 13.2559 8.96273 13.528C9.72196 13.9518 10.4803 14.3771 11.2387 14.8023C11.365 14.8732 11.4896 14.947 11.6198 15.0281C11.7718 15.0368 11.9189 15.0368 12.066 15.0368C12.0638 15.0257 12.057 15.0064 12.06 15.0048C12.3409 14.8474 12.3524 14.5994 12.2988 14.3224C12.2447 14.0428 12.2012 13.7611 12.1541 13.4801C12.0881 13.0865 12.0219 12.693 11.9581 12.299C11.914 12.0268 11.8757 11.7536 11.8312 11.4814C11.7668 11.0876 11.6985 10.6944 11.6334 10.3007C11.6001 10.0992 11.568 9.89748 11.5409 9.69508C11.5365 9.66216 11.5595 9.62469 11.5732 9.59069C11.5783 9.57827 11.5932 9.56992 11.6035 9.55953C12.2671 8.88585 12.9315 8.21289 13.5941 7.5382C14.0035 7.12139 14.4105 6.70226 14.8178 6.28337C14.8741 6.22545 14.9256 6.1629 14.9875 6.09735C14.9957 5.93514 14.9957 5.77806 14.9957 5.62098C14.9473 5.58173 14.8977 5.54384 14.8507 5.50296C14.6805 5.35493 14.4623 5.36622 14.2607 5.32995C13.8918 5.26358 13.5209 5.20767 13.1501 5.15286C12.7922 5.09998 12.4327 5.05799 12.0751 5.00391C11.667 4.9422 11.2603 4.87041 10.8525 4.80694C10.6221 4.77109 10.391 4.73785 10.1592 4.71402C10.0501 4.70281 9.97971 4.66463 9.93616 4.55979C9.84789 4.34731 9.75386 4.13702 9.65578 3.92885C9.37678 3.33668 9.09407 2.74625 8.81378 2.15468C8.59011 1.68261 8.36752 1.21001 8.14528 0.737261C8.1054 0.652447 8.06832 0.566265 8.03198 0.479855C7.95619 0.299642 7.87421 0.124797 7.67916 0.0269743C7.61686 0.0186162 7.55842 0.0186146 7.5 0.0186099V0.0184326C7.49931 0.0184326 7.49857 0.0185508 7.49788 0.0185508C7.49717 0.0185508 7.49642 0.0184326 7.49571 0.0184326Z" fill="white" fill-opacity="0.933333"/>
</g>
<defs>
<clipPath id="clip0_191_1314">
<rect width="14.9957" height="15.0183" fill="white" transform="translate(0 0.0184326)"/>
</clipPath>
</defs>
</svg>
